<?xml version="1.0" encoding="UTF-8"?>
<svg id="Layer_2" data-name="Layer 2" xmlns="http://www.w3.org/2000/svg" viewBox="0 0 1920.74 1081.31">
    <defs>
        <style>
            .cls-1 {
            opacity: .1;
            }

            .cls-1, .cls-2, .cls-3 {
            fill: #bfaed1;
            }

            .cls-4 {
            stroke-width: 3px;
            }

            .cls-4, .cls-5 {
            stroke-miterlimit: 10;
            }

            .cls-4, .cls-5, .cls-6 {
            fill: none;
            }

            .cls-4, .cls-6 {
            stroke: #f4d3d4;
            }

            .cls-7 {
            fill: #f7e9e9;
            }

            .cls-8 {
            fill: #fff;
            }

            .cls-9 {
            fill: #faf7fb;
            }

            .cls-10 {
            fill: #a894c2;
            }

            .cls-11 {
            fill: #af8264;
            }

            .cls-12 {
            fill: #c9a389;
            }

            .cls-5 {
            stroke: #bfaed1;
            stroke-width: 2px;
            }

            .cls-6 {
            stroke-linecap: round;
            stroke-linejoin: round;
            stroke-width: 7px;
            }

            .cls-13 {
            fill: #82a290;
            opacity: .52;
            }

            .cls-3 {
            opacity: .5;
            }

            .sheet {
            animation: sheetFallDown 1s linear forwards;
            }

            @keyframes sheetFallDown {
            from {
            transform: translateY(-400px);
            }

            to {
            transform : translateY(0);
            }
            }
        </style>
    </defs>
    <g id="Layer_1-2" data-name="Layer 1">
        <g id="scene">
            <rect id="background" class="cls-7" x="0" width="1920" height="1080"/>
            <g id="floorlines">
                <line class="cls-4" x1="1920" y1="822.72" y2="822.72"/>
                <line class="cls-4" x1="184.63" y1="1080" x2="554.05" y2="822.72"/>
                <line class="cls-4" x1="1092.27" y1="822.72" x2="1212.63" y2="1080"/>
                <line class="cls-4" x1="1274.46" y1="822.72" x2="1560.61" y2="1080"/>
                <line class="cls-4" x1="1920" y1="1080" x2="1462.62" y2="822.72"/>
            </g>
            <g id="whiteboard">
                <g>
                    <rect class="cls-12" x="360.08" y="170.21" width="1130.44" height="551.3" rx="44.67" ry="44.67"/>
                    <rect class="cls-8" x="386.95" y="195.72" width="1075.24" height="497.02"/>
                    <rect class="cls-13" x="386.95" y="195.72" width="1075.24" height="497.02"/>
                </g>
                <g>
                    <rect class="cls-12" x="317.73" y="444.23" width="25.44" height="434.57"/>
                    <rect class="cls-12" x="915.08" y="149.34" width="25.44" height="1194.71"
                          transform="translate(1674.49 -181.11) rotate(90)"/>
                    <polygon class="cls-12"
                             points="320.9 806.36 509.86 736.21 571.94 740.3 327.05 831.21 320.9 806.36"/>
                    <circle class="cls-11" cx="300.78" cy="910.55" r="15"/>
                    <circle class="cls-11" cx="380.52" cy="877.06" r="15"/>
                    <rect class="cls-11" x="336.86" y="472.91" width="23.22" height="32.68"/>
                    <rect class="cls-12" x="1507.54" y="444.33" width="25.44" height="434.57"
                          transform="translate(3040.53 1323.23) rotate(-180)"/>
                    <polygon class="cls-12"
                             points="1529.81 806.46 1340.85 736.31 1278.77 740.4 1523.66 831.31 1529.81 806.46"/>
                    <circle class="cls-11" cx="1542.37" cy="914.64" r="15"/>
                    <circle class="cls-11" cx="1478.81" cy="867.38" r="15"/>
                    <rect class="cls-11" x="1490.63" y="473" width="23.22" height="32.68"
                          transform="translate(3004.48 978.69) rotate(-180)"/>
                    <rect class="cls-12" x="322.52" y="834.49" width="25.44" height="96.01"
                          transform="translate(1025.57 238.58) rotate(67.79)"/>
                    <rect class="cls-12" x="1502.76" y="829.15" width="25.44" height="96.01"
                          transform="translate(3156.12 265.3) rotate(129.49)"/>
                </g>
            </g>
            <g id="machine">
                <g>
                    <polygon class="cls-8"
                             points="1660.62 494.08 1863.58 494.08 1863.58 1024.74 1519.04 1024.74 1519.04 790.1 1588.35 723.77 1660.62 494.08"/>
                    <polygon class="cls-2"
                             points="1800.82 494.08 1863.58 494.08 1863.58 1024.74 1659.82 1024.74 1659.82 789.94 1726.37 724.37 1800.82 494.08"/>
                    <polygon class="cls-10"
                             points="1669.68 525.7 1773.21 525.7 1717.01 696.77 1614.46 696.77 1669.68 525.7"/>
                    <polygon class="cls-1"
                             points="1588.35 723.77 1726.37 724.37 1659.82 789.94 1519.04 790.1 1588.35 723.77"/>
                    <polygon class="cls-3"
                             points="1659.82 1024.74 1519.04 1024.74 1519.04 790.1 1659.82 789.94 1659.82 1024.74"/>
                </g>
                <line class="cls-5" x1="1674.61" y1="543.25" x2="1753.38" y2="543.25"/>
                <line class="cls-5" x1="1678.83" y1="564.08" x2="1745.07" y2="564.08"/>
                <line class="cls-5" x1="1659.82" y1="586.13" x2="1685.46" y2="586.13"/>
                <line class="cls-5" x1="1694.44" y1="586.13" x2="1720.08" y2="586.13"/>
                <line class="cls-5" x1="1726.96" y1="586.13" x2="1739.78" y2="586.13"/>
                <line class="cls-5" x1="1654.45" y1="608.18" x2="1733.22" y2="608.18"/>
                <line class="cls-5" x1="1646.08" y1="630.24" x2="1702.99" y2="630.24"/>
            </g>
            <g id="sheet" class="sheet">
                <path class="cls-8"
                      d="m519.63,157.82c3.68-4.31,8.57-4.77,15.27-4.89,52.73-.89,105.57.09,158.3.4,105.52.61,211.05,1.92,316.55,3.91,105.51,2,211,4.68,316.47,8.06,19.51.63,39.02,1.27,58.53,1.95,8.97.31,18.43.77,25.99,5.62,9.03,5.79,13.36,16.54,16.69,26.74,51.33,156.67-6.02,329.82,25.84,491.57,8.8,44.7,24.42,88.04,46.15,128.08,9.78,18.02,20.9,40.06,10.37,57.65-3.98,6.65-10.54,11.34-17.27,15.2-28.02,16.11-60.98,20.9-93.14,24.1-66.5,6.61-133.41,7.72-200.23,8.61-273.25,3.61-546.55,3.47-819.8-.41-24.59-.35-49.71-.82-72.86-9.14-12.88-4.63-26.25-13.55-28-27.12-.86-6.68,1.29-13.34,3.42-19.74,33.3-100.1,66.6-200.21,99.9-300.31,33.3-100.1,66.6-200.21,99.9-300.31,8.33-25.03,16.65-50.05,24.98-75.08,3.37-10.12,5.74-21.55,10.5-31.12.75-1.5,1.55-2.74,2.43-3.77Z"/>
                <path class="cls-6" d="m562.16,180.87s222.42,254.91,411.14,293.4c0,0,100.57,26.07,186.24-8.69"/>
                <path class="cls-6" d="m601.9,264.32s147.68,269.3,306.53,326.39c0,0,95.16,57.09,251.11,26.06"/>
                <path class="cls-7"
                      d="m428.01,520.61c-6.82,21.25-11.21,43.76-18.06,65-26.27,81.44-48.3,163.06-79.9,242.76-5.55,14.01-11.36,28.98-7.91,43.62,3.45,14.64,20.54,27.36,34.87,21.13,13.82-6.01,15.59-23.65,15.48-38.11-.32-42.3.23-84.79,7.12-126.56,4.66-28.3,12.2-56.08,19.73-83.81,11.3-41.62,22.59-83.23,33.89-124.85,0,0-3.96-3.06-5.21.82Z"/>
                <path class="cls-7"
                      d="m1109.12,737.1c-52.88,7.49-107.2,4.58-159.04-8.28-46.09-11.43-89.87-30.51-133.4-49.5-35.93-15.67-72.58-31.81-101.43-58.34-27.53-25.31-46.28-58.56-63.93-91.53-7.88-14.73-15.63-29.91-19.45-46.28-1.34-5.74-6.57-44.8,8.89-33.64,3.2,2.31,4.7,6.24,6.12,9.92,30.89,80.39,97.71,146.18,178.56,175.83,33.03,12.11,67.91,18.39,101.41,29.15,37.8,12.15,73.57,29.93,111.18,42.63,24.56,8.29,50.45,14.69,71.37,30-.09.01-.19.03-.28.04Z"/>
                <path class="cls-7"
                      d="m1247.97,539.85c22.36-14.15,43.08-30.71,60.96-50.18,34.68-37.77,57.64-85.74,67.61-136.03-11.56,6.35-17.48,19.34-22.88,31.37-17.62,39.2-38.41,77.91-69.35,107.74-43.86,42.29-104.39,63.05-164.49,73.07-35.38,5.9-72.54,8.37-106.4-3.47-8.79-3.07-21.04-9.77-30.68-7.69-7.43,1.6-11.12,9.16-5.44,15.95,3.19,3.81,8.16,5.56,12.93,6.95,8.92,2.61,18.01,4.57,27.09,6.53,23.09,4.99,46.38,10,70,10.25,37.41.39,74.01-11.21,108.14-26.52,18.08-8.11,35.75-17.36,52.51-27.97Z"/>
                <path class="cls-6" d="m1309.25,295.04s83.27-63.7,85.26-103.87"/>
                <path class="cls-6" d="m1320.33,227.18s55.18-31.94,61.33-51.39"/>
            </g>
            <g id="counter">
                <g>
                    <rect class="cls-9" x="98.38" y="701.52" width="1205.52" height="266.17"/>
                    <rect class="cls-10" x="51.73" y="669.48" width="1300.53" height="39.18"/>
                    <rect class="cls-2" x="98.38" y="967.7" width="58.4" height="25.24"/>
                    <rect class="cls-2" x="1243.91" y="967.7" width="58.4" height="25.24"/>
                </g>
                <rect class="cls-3" x="394.68" y="708.66" width="18.15" height="259.04"/>
                <rect class="cls-3" x="991.5" y="708.66" width="18.15" height="259.04"/>
                <rect class="cls-3" x="98.38" y="834.61" width="296.3" height="3.57"/>
                <rect class="cls-3" x="1009.65" y="834.61" width="294.38" height="3.57"/>
                <rect class="cls-3" x="412.82" y="770.72" width="578.68" height="3.57"/>
                <rect class="cls-3" x="412.82" y="834.61" width="578.68" height="3.57"/>
                <rect class="cls-3" x="412.82" y="900.24" width="578.7" height="3.57"/>
                <path class="cls-2"
                      d="m266.1,838.18v7.35c0,3.7-8.77,6.69-19.58,6.69s-19.58-2.99-19.58-6.69v-7.35h39.16Z"/>
                <path class="cls-2"
                      d="m1175.45,838.18v7.35c0,3.7-8.77,6.69-19.58,6.69s-19.58-2.99-19.58-6.69v-7.35h39.16Z"/>
                <circle class="cls-2" cx="702.16" cy="740.46" r="6.48"/>
                <circle class="cls-2" cx="702.34" cy="804.65" r="6.48"/>
                <circle class="cls-2" cx="702.34" cy="869.21" r="6.48"/>
                <circle class="cls-2" cx="702.16" cy="934.84" r="6.48"/>
            </g>
        </g>
    </g>
</svg>